<svg xmlns="http://www.w3.org/2000/svg" xmlns:xlink="http://www.w3.org/1999/xlink" style="vertical-align:-.255ex" width="19.905ex" height="2.009ex" viewBox="0 -755.5 8570 865.1"><defs><path id="a" stroke-width="1" d="M131 289q0 32 16 65t56 61 97 27q62 0 90-27t29-60q0-32-17-47t-38-16q-13 0-24 8t-12 26q0 16 9 28t17 18 13 6q1 0 1 1 0 3-7 9t-25 11-39 6q-48 0-70-26t-23-53q0-25 19-35t55-17 52-15q66-29 66-96 0-28-11-56t-33-56-63-44-94-17q-77 0-109 29T53 87q0 39 21 56t44 17q15 0 28-9t14-31q0-26-18-44t-31-18q-2-1-3-1t-1-2q1-3 8-8t31-13 55-7q36 0 62 11t38 28 17 31 5 25q0 28-21 42t-48 17-59 15-47 35q-17 25-17 58z"/><path id="b" stroke-width="1" d="M184 600q0 24 19 42t44 19q18 0 30-12t13-30q0-23-20-42t-44-20q-15 0-28 10t-14 33zM21 287q0 8 9 31t24 51 44 51 60 22q39 0 65-23t27-62q0-17-14-56t-40-105-42-113q-5-22-5-32 0-25 17-25 9 0 19 3t23 14 27 35 25 59q3 12 5 14t17 2q20 0 20-10 0-8-9-31t-25-51-45-50-62-22q-32 0-59 21T74 74q0 17 5 32t43 114q38 101 44 121t7 39q0 24-17 24h-2q-30 0-55-33t-38-84q-1-1-2-3t-1-3-2-2-3-1-4 0-8 0H27q-6 6-6 9z"/><path id="c" stroke-width="1" d="M21 287q1 6 3 16t12 38 20 47 33 37 46 17q36 0 60-18t30-34 6-21q0-2 1-2l11 11q61 64 139 64 54 0 87-27t34-79-38-157-38-127q0-26 17-26 6 0 9 1 29 5 52 38t35 80q2 8 20 8 20 0 20-8 0-1-4-15-8-29-22-57t-46-56-69-27q-47 0-68 27t-21 56q0 19 36 120t37 152q0 59-44 59h-5q-86 0-145-101l-7-12-33-134Q156 26 151 16q-13-27-43-27-13 0-21 6T76 7t-2 10q0 13 38 163t40 163q1 5 1 23 0 39-24 39-38 0-63-100-6-20-6-21-2-6-19-6H27q-6 6-6 9z"/><path id="d" stroke-width="1" d="M52 289q7 42 54 97t116 56q35 0 64-18t43-45q42 63 101 63 37 0 64-22t28-59q0-29-14-47t-27-22-23-4q-19 0-31 11t-12 29q0 46 50 63-11 13-40 13-13 0-19-2-38-16-56-66-60-221-60-258 0-28 16-40t35-12q37 0 73 33t49 81q3 10 6 11t16 2h4q15 0 15-8 0-1-2-11-16-57-62-101T333-11q-70 0-106 63-41-62-94-62h-6q-49 0-70 26T35 71q0 32 19 52t45 20q43 0 43-42 0-20-12-35t-23-20-13-5l-3-1q0-1 6-4t16-7 19-3q36 0 62 45 9 16 23 68t28 108 16 66q5 27 5 39 0 28-15 40t-34 12q-40 0-75-32t-49-82q-2-9-5-10t-16-2H58q-6 6-6 11z"/><path id="e" stroke-width="1" d="M56 347q0 13 14 20h637q15-8 15-20 0-11-14-19l-318-1H72q-16 5-16 20zm0-194q0 15 16 20h636q14-10 14-20 0-13-15-20H70q-14 7-14 20z"/><path id="f" stroke-width="1" d="M34 159q0 109 86 196t186 87q56 0 88-24t33-63q0-29-19-49t-48-21q-19 0-30 10t-11 30 11 34 22 21 14 6h1q0 2-6 6t-21 8-34 4q-30 0-57-14-21-9-43-31-44-44-64-124t-21-116q0-46 26-69 22-24 58-24h4q112 0 185 85 9 10 12 10 4 0 13-9t10-14-9-15-29-28-45-30-64-25-80-11q-75 0-121 48T34 159z"/><path id="g" stroke-width="1" d="M201-11q-75 0-121 49T34 156q0 65 30 123t82 101q76 61 155 61 32 0 40-1 13-3 26-7t35-16 36-30 26-49 12-70q0-107-86-193T201-11zm-80 131q0-50 26-72t59-22q44 0 83 32t62 84q9 21 23 74t14 92q0 44-18 67-24 30-64 30-63 0-111-58-37-44-55-117t-19-110z"/><path id="h" stroke-width="1" d="M630 29q0-20-21-20-5 0-22 16t-94 93L389 222 284 117Q178 13 175 11q-4-2-7-2-8 0-14 6t-7 14q0 7 14 22t94 95l104 104-104 104q-81 81-94 95t-14 22q0 9 6 14t15 5q5 0 7-1 3-2 109-106l105-105 104 104q77 77 94 93t22 16q21 0 21-20 0-7-10-18t-98-98L418 250l104-105q84-84 96-97t12-19z"/><path id="i" stroke-width="1" d="M26 385q-7 7-7 10 0 4 3 16t5 14q2 5 9 5t51 1h53l19 80q3 11 7 29t7 26 6 20 8 17 10 12 14 9 18 2q18-1 25-11t7-19q0-7-9-47t-20-79l-10-37q0-2 50-2h51q7-7 7-11 0-22-13-35H210l-36-145Q135 80 135 68q0-42 27-42 35 0 68 34t53 84q2 6 5 7t15 2h4q15 0 15-8 0-3-3-12-5-16-18-38t-34-47-51-42-61-17q-30 0-57 15T59 56q-2 8-2 27v18l35 140q35 141 36 142 0 2-51 2H26z"/><path id="j" stroke-width="1" d="M33 157q0 101 76 192t171 92q51 0 90-49 16 30 46 30 13 0 23-8t10-20q0-13-37-160T374 68q0-25 7-33t21-9q9 1 20 9 21 20 41 96 6 20 10 21 2 1 10 1h4q19 0 19-9 0-6-5-27t-20-54-32-50Q436 0 417-8q-8-2-24-2-34 0-57 15t-30 31l-6 15q-1 1-4-1l-4-4q-59-56-120-56-55 0-97 40T33 157zm318 171q0 6-5 22t-23 35-46 20q-35 0-67-31t-50-81q-29-79-41-164v-11q0-8-1-12 0-45 18-62t43-18q38 0 75 33t44 51q2 4 27 107t26 111z"/></defs><g fill="currentColor" stroke="currentColor" stroke-width="0" transform="scale(1 -1)"><use xlink:href="#a"/><use x="469" xlink:href="#b"/><use x="815" xlink:href="#c"/><use x="1415" xlink:href="#d"/><use x="2265" xlink:href="#e"/><use x="3322" xlink:href="#f"/><use x="3755" xlink:href="#g"/><use x="4241" xlink:href="#a"/><use x="4710" xlink:href="#d"/><use x="5505" xlink:href="#h"/><use x="6506" xlink:href="#i"/><use x="6867" xlink:href="#j"/><use x="7397" xlink:href="#c"/><use x="7997" xlink:href="#d"/></g></svg>